REM Ripping Tool: trurip

FILE "Baby Jo - The Super Hero (1992)(Micro World)(JP)(en).img" BINARY
  TRACK 01 AUDIO
    INDEX 01 00:00:00
  TRACK 02 MODE1/2352
    INDEX 00 00:45:65
    INDEX 01 00:47:65
  TRACK 03 AUDIO
    INDEX 00 00:57:47
    INDEX 01 00:59:47
  TRACK 04 AUDIO
    INDEX 01 15:33:68
  TRACK 05 AUDIO
    INDEX 01 30:00:50

REM DISC HASHES
REM CRC32 : 4263aa94
REM MD5   : 558806a27c6e91f2e2e7910beeba623a
REM SHA1  : a93a7fd90515f9a696d448af46c95b3a912908ed

REM Gap Append Method: Prev [crc32]
REM Trk 01: ccd25d2f
REM Trk 02: e0604508
REM Trk 03: a7bd20a0
REM Trk 04: 56fcf7dd
REM Trk 05: fe07ff6b

REM Gap Append Method: Prev [md5]
REM Trk 01: 7938d9aa88f644b60389fa8246f2052e
REM Trk 02: 85a2929318ec3d0d5dd7c140d6b69023
REM Trk 03: f0509a6565a3f38446bba5c7a13c1897
REM Trk 04: 3ed23efb617adf9a490d371dc7432563
REM Trk 05: 1b013ba735518e5ec3ff6fb2f2fcf8b9

REM Gap Append Method: Prev [sha1]
REM Trk 01: 0fc7f8840f23f43ebfb7041f71427c165f368105
REM Trk 02: 727bebbb004a073e614130872b6c155dac999bf3
REM Trk 03: edd140e94c761b4331e7755510cda7bf380bcd41
REM Trk 04: e4649356c7352eb85f82b0faed4a9783b944a824
REM Trk 05: 1cdeec7a37d774d0dbc3dcf7c573bf75a177b9bc

REM Gap Append Method: None [crc32]
REM Trk 01: 81d96e54
REM Trk 02: e75f3a1e
REM Trk 03: a7bd20a0
REM Trk 04: 56fcf7dd
REM Trk 05: fe07ff6b
REM Gap 02: fef7c5ab
REM Gap 03: 7abe247f

REM Gap Append Method: None [md5]
REM Trk 01: 3c465815f77d7cf5066862609e75e397
REM Trk 02: 2ef1b5d0678d76f4370815df8ed44c83
REM Trk 03: f0509a6565a3f38446bba5c7a13c1897
REM Trk 04: 3ed23efb617adf9a490d371dc7432563
REM Trk 05: 1b013ba735518e5ec3ff6fb2f2fcf8b9
REM Gap 02: 0cb7a28a18a2f026e21642b126c26465
REM Gap 03: 9df204fbc98bb8965081cb30a89715fc

REM Gap Append Method: None [sha1]
REM Trk 01: a28a22d4e31b74623ec332e0165a88c21db594d5
REM Trk 02: 4c972106f5fd70f71a27e9c11e47b0b200c5e443
REM Trk 03: edd140e94c761b4331e7755510cda7bf380bcd41
REM Trk 04: e4649356c7352eb85f82b0faed4a9783b944a824
REM Trk 05: 1cdeec7a37d774d0dbc3dcf7c573bf75a177b9bc
REM Gap 02: eee200de8c4fa3dae3441bd4533d726ae023a248
REM Gap 03: cbe29e0bd725ef1194f8c47619dd42078e841de2

REM Gap Append Method: Next [crc32]
REM Trk 01: 81d96e54
REM Trk 02: 6239df4a
REM Trk 03: 71ab658c
REM Trk 04: 56fcf7dd
REM Trk 05: fe07ff6b

REM Gap Append Method: Next [md5]
REM Trk 01: 3c465815f77d7cf5066862609e75e397
REM Trk 02: 034e8cf3ecf47f5887a92f02381d8622
REM Trk 03: e8601b7cd44b6d9189d5230ff5b86a93
REM Trk 04: 3ed23efb617adf9a490d371dc7432563
REM Trk 05: 1b013ba735518e5ec3ff6fb2f2fcf8b9

REM Gap Append Method: Next [sha1]
REM Trk 01: a28a22d4e31b74623ec332e0165a88c21db594d5
REM Trk 02: 3fa76696c23012e88683d4d6598a48057900dc4c
REM Trk 03: 20465fbd44a05d5937d255cc06ad33653249462d
REM Trk 04: e4649356c7352eb85f82b0faed4a9783b944a824
REM Trk 05: 1cdeec7a37d774d0dbc3dcf7c573bf75a177b9bc

